<svg width="156" height="32" viewBox="0 0 156 32" fill="none" xmlns="http://www.w3.org/2000/svg">
<path d="M39.0178 10.8288C38.9701 10.8288 38.9213 10.8254 38.8719 10.8178L24.2592 8.60549C23.526 8.4943 22.9297 7.74641 22.9297 6.93785V1.05466C22.9297 0.423614 23.2873 0 23.8195 0C23.9333 0 24.0521 0.0203194 24.1718 0.0598303L38.8443 4.88299C39.4705 5.0876 40 5.89363 40 6.64236V9.661C40 10.327 39.5775 10.8288 39.0178 10.8288Z" fill="#F18700"/>
<path d="M24.1307 20.2684C23.4573 20.2684 22.9296 19.6862 22.9296 18.9419V13.0593C22.9296 12.3145 23.4584 11.7315 24.1329 11.7315C24.1668 11.7315 24.2012 11.7326 24.2362 11.7357L38.8368 13.03C39.4783 13.0881 39.9998 13.7434 39.9998 14.4916V17.5085C39.9998 18.2576 39.4783 18.9129 38.8373 18.9696L24.2357 20.2636C24.2007 20.2667 24.1651 20.2684 24.1307 20.2684Z" fill="#F18700"/>
<path d="M23.8203 32C23.2872 32 22.9294 31.5767 22.9294 30.9462V25.0636C22.9294 24.2536 23.5263 23.5054 24.2592 23.3962L38.8721 21.1819C38.9215 21.1746 38.9698 21.1709 39.0175 21.1709C39.5774 21.1709 39.9996 21.6732 39.9996 22.3398V25.3576C39.9996 26.1174 39.4815 26.907 38.8445 27.117L24.1717 31.9407C24.0523 31.9805 23.9341 32 23.8203 32Z" fill="#F18700"/>
<path d="M1.00175 12.7759C0.421495 12.7759 0.000135651 12.2828 0.000135651 11.6047V11.113C0.000135651 10.3036 0.5643 9.34915 1.23232 9.02996L19.6674 0.216471C19.8153 0.145633 19.9584 0.109791 20.0922 0.109791C20.5194 0.109791 20.7957 0.481195 20.7957 1.05495V6.93757C20.7957 7.7498 20.2152 8.53974 19.5015 8.69778L1.24333 12.7482C1.16177 12.7666 1.08105 12.7759 1.00175 12.7759Z" fill="#27348B"/>
<path d="M19.6695 20.2217C19.6221 20.2217 19.5741 20.218 19.5256 20.2121L1.30218 17.8761C0.583919 17.7861 0 17.0551 0 16.2471V15.753C0 14.9461 0.583919 14.2151 1.30218 14.1237L19.5256 11.79C19.5747 11.783 19.6233 11.7801 19.6712 11.7801C20.3124 11.7801 20.7959 12.3302 20.7959 13.0592V18.9421C20.7959 19.2985 20.6782 19.6256 20.4654 19.8621C20.2568 20.0941 19.9746 20.2217 19.6695 20.2217Z" fill="#27348B"/>
<path d="M20.0914 31.89C19.9576 31.89 19.8151 31.8545 19.6672 31.7836L1.23323 22.9701C0.564641 22.6515 0.000193787 21.6982 0.000193787 20.8888V20.3946C0.000193787 19.717 0.42099 19.2251 1.00068 19.2251C1.07998 19.2251 1.16154 19.2344 1.2431 19.2527L19.5015 23.3015C20.215 23.4612 20.7964 24.2514 20.7964 25.0637V30.9466C20.7964 31.2384 20.725 31.4819 20.5906 31.6504C20.4659 31.8073 20.2937 31.89 20.0914 31.89Z" fill="#27348B"/>
<path d="M52.0774 6.00027H56.002V25.749H52.0774V6.00027Z" fill="#27348B"/>
<path d="M64.5298 14.252C62.9197 14.252 61.9133 15.6355 62.0392 18.428L66.7687 17.7233C66.7687 15.3087 65.964 14.252 64.5298 14.252ZM62.2906 20.3401C62.5678 22.3275 63.5736 23.3085 65.561 23.3085C67.1463 23.3085 68.3536 22.9566 69.0832 22.579L69.964 25.019C68.9073 25.5476 67.3977 26.0003 65.1086 26.0003C60.9574 26.0003 58.5675 23.2583 58.5675 18.9315C58.5675 14.6799 60.7816 11.9375 64.6808 11.9375C68.6051 11.9375 70.5931 14.6042 70.4167 19.1827L62.2906 20.3401Z" fill="#27348B"/>
<path d="M79.4748 18.6294C77.1103 18.856 75.5756 19.4094 75.5756 21.5729C75.5756 23.1576 76.481 23.8372 78.0411 23.8372C78.6199 23.8372 79.1226 23.7364 79.4748 23.5601V18.6294ZM77.8399 26.0004C73.915 26.0004 71.9025 24.5413 71.9025 21.7236C71.9025 18.2269 75.3995 17.1951 79.4748 16.8181V16.1893C79.4748 14.7801 78.5189 14.3777 77.0849 14.3777C75.7765 14.3777 74.4436 14.8053 73.5628 15.2077L72.7076 12.9689C73.6635 12.5664 75.4246 11.9376 77.8148 11.9376C80.8836 11.9376 83.1476 13.2206 83.1476 16.8937V24.9943C82.0159 25.598 80.1789 26.0004 77.8399 26.0004Z" fill="#27348B"/>
<path d="M89.2851 25.9752C87.6242 25.9752 86.14 25.5477 85.3105 24.9942L86.3164 22.5039C86.8199 22.9064 87.7501 23.2834 88.7311 23.2834C89.7378 23.2834 90.4168 22.6546 90.4168 21.7995C90.4168 20.8936 89.939 20.3906 88.6803 19.8871C86.1908 18.9061 85.6374 17.5224 85.6374 16.1136C85.6374 13.7991 87.4484 11.9375 90.1659 11.9375C91.8511 11.9375 93.0085 12.2646 94.0648 12.9185L93.1089 15.1574C92.7062 14.8306 91.9259 14.4533 91.0462 14.4533C90.0144 14.4533 89.4863 15.082 89.4863 15.8621C89.4863 16.7675 90.1659 17.2712 91.222 17.7234C93.8382 18.8305 94.4422 20.1135 94.4422 21.6987C94.4422 24.0635 92.505 25.9752 89.2851 25.9752Z" fill="#27348B"/>
<path d="M102.341 14.252C100.73 14.252 99.7241 15.6355 99.85 18.428L104.58 17.7233C104.58 15.3087 103.775 14.252 102.341 14.252ZM100.102 20.3401C100.379 22.3275 101.385 23.3085 103.372 23.3085C104.957 23.3085 106.164 22.9566 106.894 22.579L107.775 25.019C106.718 25.5476 105.209 26.0003 102.919 26.0003C98.7688 26.0003 96.3784 23.2583 96.3784 18.9315C96.3784 14.6799 98.5924 11.9375 102.491 11.9375C106.416 11.9375 108.404 14.6042 108.228 19.1827L100.102 20.3401Z" fill="#27348B"/>
<path d="M124.907 25.749H121.284L119.347 18.4027C119.12 17.4971 119.07 16.5415 119.07 16.5415H119.045C119.045 16.5415 118.995 17.4971 118.744 18.4027L116.756 25.749H113.158L109.435 12.1894H113.335L114.97 20.0128C115.196 21.12 115.222 21.9754 115.222 21.9754H115.272C115.272 21.9754 115.297 21.1451 115.599 20.0128L117.662 12.1894H120.881L122.819 20.0128C123.045 20.969 123.146 21.9754 123.146 21.9754H123.196C123.196 21.9754 123.221 20.969 123.448 19.988L125.184 12.1894H128.63L124.907 25.749Z" fill="#27348B"/>
<path d="M135.775 14.252C134.165 14.252 133.159 15.6355 133.284 18.428L138.014 17.7233C138.014 15.3087 137.208 14.252 135.775 14.252ZM133.536 20.3401C133.812 22.3275 134.819 23.3085 136.806 23.3085C138.391 23.3085 139.6 22.9566 140.328 22.579L141.209 25.019C140.153 25.5476 138.643 26.0003 136.354 26.0003C132.202 26.0003 129.813 23.2583 129.813 18.9315C129.813 14.6799 132.026 11.9375 135.926 11.9375C139.85 11.9375 141.838 14.6042 141.662 19.1827L133.536 20.3401Z" fill="#27348B"/>
<path d="M149.485 14.252C148.856 14.252 148.453 14.3528 148.076 14.5537V23.4347C148.378 23.56 148.806 23.6356 149.283 23.6356C151.271 23.6356 152.126 21.8748 152.126 18.8305C152.126 16.1892 151.572 14.252 149.485 14.252ZM149.057 26.0003C146.717 26.0003 145.057 25.5728 144.152 24.9942V6.00043H148.076V12.5164C148.705 12.2144 149.409 12.0129 150.591 12.0129C153.786 12.0129 156 14.5788 156 18.5793C156 23.3339 153.51 26.0003 149.057 26.0003Z" fill="#27348B"/>
</svg>
